<svg width="32" height="32" viewBox="0 0 32 32" fill="none" xmlns="http://www.w3.org/2000/svg">
<path d="M28.7061 27.293L23.3034 21.8901C25.2113 19.6179 26.1685 16.6968 25.9752 13.7361C25.782 10.7753 24.4532 8.00348 22.2661 5.99855C20.0789 3.99361 17.2022 2.91039 14.2359 2.97476C11.2695 3.03913 8.44253 4.24613 6.34442 6.34406C4.2463 8.44199 3.03905 11.2689 2.97441 14.2352C2.90978 17.2016 3.99275 20.0784 5.99749 22.2657C8.00224 24.453 10.774 25.782 13.7347 25.9755C16.6954 26.1691 19.6166 25.2122 21.889 23.3044L27.2919 28.7073C27.4794 28.8948 27.7338 29.0002 27.999 29.0002C28.2642 29.0002 28.5186 28.8948 28.7061 28.7073C28.8937 28.5197 28.999 28.2654 28.999 28.0001C28.999 27.7349 28.8937 27.4806 28.7061 27.293V27.293ZM4.99975 14.5C4.99975 12.6211 5.55691 10.7844 6.60078 9.2221C7.64466 7.65983 9.12836 6.44219 10.8643 5.72316C12.6002 5.00413 14.5103 4.816 16.3531 5.18256C18.1959 5.54912 19.8887 6.4539 21.2173 7.7825C22.5459 9.1111 23.4506 10.8038 23.8172 12.6467C24.1838 14.4895 23.9956 16.3996 23.2766 18.1355C22.5576 19.8714 21.3399 21.3551 19.7777 22.399C18.2154 23.4429 16.3787 24 14.4997 24C11.9811 23.9972 9.56635 22.9954 7.78537 21.2144C6.00439 19.4334 5.00259 17.0187 4.99975 14.5V14.5Z" fill="#4B4B4B"/>
</svg>
